<?xml version="1.0" encoding="utf-8"?>
<!-- Generator: Adobe Illustrator 24.0.1, SVG Export Plug-In . SVG Version: 6.00 Build 0)  -->
<svg version="1.1" id="图层_1" xmlns="http://www.w3.org/2000/svg" xmlns:xlink="http://www.w3.org/1999/xlink" x="0px" y="0px"
	 viewBox="0 0 195.65 137.74" style="enable-background:new 0 0 195.65 137.74;" xml:space="preserve">
<style type="text/css">
	.st0{fill:url(#SVGID_1_);}
	.st1{fill:url(#SVGID_2_);}
</style>
<linearGradient id="SVGID_1_" gradientUnits="userSpaceOnUse" x1="39.4817" y1="63.0227" x2="162.5183" y2="63.0227">
	<stop  offset="0.3045" style="stop-color:#1937FF"/>
	<stop  offset="1" style="stop-color:#00F7FF"/>
</linearGradient>
<path class="st0" d="M162.52,60.36H137.6c0.92-18.9,1.84-37.99,2.51-51.85h-13.99L88.54,60.36H39.48l0.81,0.18
	c36.37,6.69,67.49,27.42,86.9,56.04l0.67,0.96l7.01-0.02c0.51-10.46,1.3-27.55,2.14-44.93h16.07
	C155.17,67.76,158.44,63.57,162.52,60.36z M122.2,90.23c-4.91-6.89-11.18-12.87-18.46-17.64h19.5L122.2,90.23z M123.95,60.36h-18.57
	l20.24-28.42L123.95,60.36z"/>
<linearGradient id="SVGID_2_" gradientUnits="userSpaceOnUse" x1="40.7413" y1="104.3706" x2="88.4848" y2="104.3706">
	<stop  offset="0.3045" style="stop-color:#1937FF"/>
	<stop  offset="1" style="stop-color:#00C3FF"/>
</linearGradient>
<path class="st1" d="M40.74,129.36l47.74-42.42c-3.74-2.97-7.84-5.52-12.22-7.56L40.74,129.36z"/>
</svg>
